<svg id="Capa_1" enable-background="new 0 0 511.998 511.998" height="32" viewBox="0 0 511.998 511.998" width="32" xmlns="http://www.w3.org/2000/svg"><g><path style="fill: #DC5467;" d="m442.524 261.31c-5.871-5.781-15.306-5.745-21.13.082l-29.394 29.393-22.66-22.661 138.238-137.491c5.882-5.85 5.897-15.374.029-21.242l-41.893-41.893 11.501-11.501c5.857-5.857 5.857-15.355 0-21.213-5.857-5.857-15.355-5.857-21.213 0l-11.502 11.501-41.894-41.893c-5.866-5.867-15.39-5.854-21.242.028l-137.491 138.239-22.66-22.661 29.394-29.394c5.826-5.825 5.862-15.26.082-21.131l-64-65c-5.866-5.957-15.484-5.968-21.361-.016l-80 81c-5.796 5.868-5.767 15.314.066 21.146l64 64c5.859 5.859 15.355 5.858 21.213 0l29.393-29.392 22.718 22.718-25.353 25.491c-5.831 5.862-5.818 15.338.029 21.185l41.394 41.394-21.76 21.76c-40.686-31.403-97.732-32.438-140.926-.939-7.435 5.421-8.278 16.216-1.768 22.726l142.12 142.121c6.498 6.499 17.294 5.68 22.726-1.768 31.499-43.192 30.463-100.238-.94-140.926l21.76-21.76 41.394 41.394c5.829 5.829 15.303 5.877 21.184.029l25.492-25.354 22.718 22.718-29.394 29.394c-5.858 5.857-5.858 15.355 0 21.213l64 64c5.822 5.823 15.271 5.871 21.147.065l81-80c5.953-5.878 5.94-15.496-.017-21.36z"/><path d="m144 416.998c-27.019 0-49-21.981-49-49 0-8.284-6.716-15-15-15s-15 6.716-15 15c0 43.561 35.439 79 79 79 8.284 0 15-6.716 15-15s-6.716-15-15-15z"/><path d="m144 481.998c-62.86 0-114-51.141-114-114 0-8.284-6.716-15-15-15s-15 6.716-15 15c0 79.061 64.957 144 144 144 8.284 0 15-6.716 15-15s-6.716-15-15-15z"/></g></svg>