<svg id="Layer_3" enable-background="new 0 0 64 64" height="32" viewBox="0 0 64 64" width="32" xmlns="http://www.w3.org/2000/svg"><g><path d="m27.084 62c.595-1.894.916-3.91.916-6 0-11.046-8.954-20-20-20-2.09 0-4.106.321-6 .916z" fill="#f4b2b0"/><path d="m63.006 32.006c0-.265-.104-.52-.292-.707l-5.015-5.014c-.188-.188-.442-.293-.708-.293s-.52.106-.707.294l-4.787 4.797-2.083-2.083 10.293-10.293c.188-.188.292-.442.292-.708 0-.265-.104-.52-.292-.707l-1.793-1.793 4.792-4.793c.188-.188.292-.442.292-.708v-2.998c0-.266-.104-.52-.292-.708l-5-5c-.187-.188-.442-.292-.708-.292h-2.999c-.266 0-.521.105-.708.292l-4.792 4.792-1.793-1.792c-.39-.39-1.023-.391-1.415 0l-10.292 10.292-2.076-2.076 4.797-4.787c.188-.188.293-.442.293-.707.001-.266-.104-.52-.292-.708l-5.014-5.014c-.392-.391-1.025-.39-1.415 0l-2.293 2.292-2.286-2.286c-.39-.39-1.023-.391-1.415 0l-8 8c-.39.391-.39 1.024 0 1.415l2.285 2.285-2.293 2.293c-.188.188-.293.442-.293.708.001.265.105.52.293.707l5.001 5c.195.195.451.292.707.292s.512-.097.707-.292l4.798-4.788 2.081 2.08-10.292 10.294c-.39.391-.39 1.024 0 1.415l3.293 3.293-4.293 4.293.078.078c-3.281-2.124-7.18-3.371-11.37-3.371-2.149 0-4.27.323-6.301.962-.334.104-.589.376-.672.716-.083.339.017.698.264.945l4.636 4.635-1.909 9.545c-.065.328.037.667.273.903l2.793 2.794-1.8 1.8c-.391-.187-.824-.3-1.285-.3-1.654 0-3 1.346-3 3s1.346 3 3 3c1.653 0 2.999-1.346 2.999-3 0-.461-.113-.893-.3-1.284l1.801-1.801 2.792 2.792c.189.189.445.293.707.293.065 0 .132-.007.196-.02l9.545-1.909 4.636 4.636c.191.189.446.293.709.293.079 0 .159-.01.237-.029.34-.083.611-.338.716-.672.639-2.033.963-4.152.963-6.3 0-4.19-1.247-8.088-3.37-11.368l.076.076 4.293-4.293 3.293 3.293c.195.195.451.292.708.292.256 0 .512-.097.707-.292l10.292-10.292 2.088 2.088-4.788 4.797c-.391.391-.39 1.023 0 1.414l5 5c.195.195.451.293.708.293.256 0 .512-.098.707-.293l2.292-2.292 2.285 2.285c.195.195.451.293.707.292.257 0 .513-.097.708-.292l8.001-8c.188-.187.292-.442.293-.707 0-.265-.105-.52-.293-.708l-2.286-2.286 2.293-2.293c.187-.187.293-.441.292-.707zm-59.007 28.993c-.552 0-1-.448-1-1s.448-1 1-1c.551 0 .999.448.999 1s-.448 1-.999 1zm52.993-32.592 1.092 1.092-2.076 2.075-1.09-1.09zm-5.457 12.657-1.093-1.093 2.058-2.058 1.093 1.093zm-1.535-5.65 1.085 1.085-2.058 2.058-1.083-1.083zm5.007 2.178-1.093-1.093 2.094-2.094 1.093 1.093zm-2.507-2.508-1.086-1.086 2.092-2.096 1.089 1.089zm1.913-32.084h2.171l1.5 1.5-1.793 1.793 1.415 1.415 1.792-1.792 1.5 1.5v2.171l-4.499 4.5-6.586-6.585zm-25.905 3.905 1.093 1.093-2.094 2.094-1.093-1.093zm-3.509 3.509 1.093 1.093-2.057 2.057-1.093-1.093zm2.508 2.507 1.085 1.085-2.06 2.055-1.083-1.083zm2.501-.329-1.086-1.086 2.094-2.094 1.088 1.088zm3.512-3.505-1.09-1.09 2.076-2.076 1.092 1.092zm-1.521-5.673 1.093 1.092-2.076 2.076-1.093-1.092zm-12.578 6.592 6.585-6.585 1.579 1.579-6.586 6.585zm2.106 3.88 1.093 1.093-2.114 2.114-1.093-1.093zm1.473 5.7-1.079-1.079 2.114-2.114 1.081 1.081zm6.92-4.08 1.587-1.584 2.077 2.077-1.585 1.585zm-23.836 36.164 1.543-7.712 5.5 5.499-4.628 4.627zm6.243 6.244-2.414-2.414 4.628-4.627 5.499 5.499zm14.236 2.151-22.63-22.629c1.33-.29 2.691-.436 4.067-.436 10.477 0 19 8.523 19 19 0 1.374-.146 2.735-.437 4.065zm-2.05-16.995c-1.047-1.335-2.25-2.537-3.585-3.584l4.072-4.072 3.585 3.585zm9.487-1.485-11.586-11.586 20.585-20.585 4.292 4.292 1.415-1.415-4.293-4.293 1.586-1.586 11.586 11.588-1.586 1.586-4.293-4.293-1.415 1.415 4.294 4.292zm12.414-9.586 1.586-1.585 2.084 2.085-1.584 1.587zm.117 6.891 1.081 1.081-2.113 2.113-1.079-1.079zm1.476 5.702-1.093-1.093 2.113-2.113 1.093 1.093zm12.578-6.592-6.586 6.585-1.578-1.578 6.586-6.586zm-2.069-3.918-1.092-1.092 2.076-2.075 1.092 1.092z" fill="#b3404a"/></g></svg>